<svg width="120" height="41" viewBox="0 0 120 41" fill="none" xmlns="http://www.w3.org/2000/svg">
<g clip-path="url(#clip0_14_4778)">
<path d="M14.1493 6.40586C13.932 6.40586 13.7378 6.54441 13.6679 6.75015L9.5481 18.8215C9.38786 19.2914 8.71764 19.2771 8.57776 18.8005L5.04401 6.77119C4.98017 6.55458 4.78121 6.40586 4.5551 6.40586H0.510021C0.163709 6.40586 -0.0814242 6.74336 0.0251857 7.072L6.22825 26.1905C6.29616 26.4003 6.49174 26.5429 6.71242 26.5429H10.8974C11.116 26.5429 11.3102 26.403 11.3802 26.1959L15.6656 13.4842C15.8211 13.0238 16.471 13.0211 16.6299 13.4801L21.0267 26.2C21.098 26.405 21.2908 26.5429 21.5081 26.5429H25.5702C25.7915 26.5429 25.9878 26.3996 26.055 26.1884L32.1794 7.07065C32.2846 6.74201 32.0394 6.40586 31.6943 6.40586H27.8965C27.6697 6.40586 27.47 6.55594 27.4069 6.77393L23.9506 18.7835C23.8128 19.2622 23.1399 19.2785 22.9789 18.8072L18.8646 6.75015C18.7946 6.54441 18.6005 6.40586 18.3832 6.40586H14.1493ZM32.615 21.0838C32.615 24.2672 35.2198 27.1619 39.4372 27.1619C41.7242 27.1619 43.3825 26.3518 44.4981 25.3408C44.8777 24.9965 45.6681 25.2504 45.7219 25.7597C45.7387 25.9274 45.7579 26.068 45.7746 26.1827C45.8079 26.3994 45.9948 26.542 46.2134 26.542H49.6909C50.0365 26.542 50.0677 26.235 50.0642 25.9281C50.0575 25.3441 50.0642 24.4661 50.0642 23.3165V13.3101C50.0642 9.29902 47.7072 5.78431 41.5051 5.78431C36.7578 5.78431 33.6762 8.62271 33.0923 11.91C33.0468 12.1646 33.2185 12.4022 33.4704 12.4593L36.8507 13.2246C37.1489 13.2918 37.4362 13.082 37.5033 12.7839C37.8965 11.0326 39.2647 9.71256 41.5463 9.71256C44.1927 9.71256 45.3503 11.0774 45.3503 12.7723C45.3503 13.4751 45.0196 14.0544 43.862 14.2201L38.6931 15.005C35.2611 15.5014 32.615 17.4862 32.615 21.0838ZM40.3472 23.3994C38.4452 23.3994 37.4117 22.1588 37.4117 20.7945C37.4117 19.1404 38.6108 18.3133 40.0993 18.0648L44.7656 17.3667C45.0739 17.3212 45.3503 17.5596 45.3503 17.8706V18.189C45.3503 22.1173 43.0348 23.3994 40.3472 23.3994ZM58.0949 26.5417C58.376 26.5417 58.6039 26.3135 58.6039 26.0324V0.509221C58.6039 0.228098 58.376 -6.10352e-05 58.0949 -6.10352e-05H54.3165C54.0353 -6.10352e-05 53.8072 0.228098 53.8072 0.509221V26.0324C53.8072 26.3135 54.0353 26.5417 54.3165 26.5417H58.0949ZM67.0017 26.5417C67.2829 26.5417 67.511 26.3135 67.511 26.0324V0.509221C67.511 0.228098 67.2829 -6.10352e-05 67.0017 -6.10352e-05H63.2233C62.9422 -6.10352e-05 62.714 0.228098 62.714 0.509221V26.0324C62.714 26.3135 62.9422 26.5417 63.2233 26.5417H67.0017ZM75.1069 15.4627C74.8202 15.5395 74.5266 15.3561 74.5069 15.0604C74.3732 13.0477 75.5018 10.734 78.1726 10.0184C81.1281 9.22647 83.1155 10.5618 83.9425 12.5512C84.0537 12.8173 83.8903 13.1093 83.6113 13.184L75.1069 15.4627ZM86.5007 18.0035C86.2225 17.9909 85.9885 18.204 85.9506 18.4799C85.6951 20.3622 84.6072 21.9928 82.0368 22.6816C79.3292 23.4071 76.6146 22.1232 75.5454 19.5316C75.435 19.2638 75.5982 18.9698 75.8774 18.895L89.2796 15.3039C89.466 15.254 89.5858 15.1009 89.5592 14.9091C89.5195 14.6273 89.4359 14.1893 89.3081 13.7124C87.6601 7.56201 83.0854 4.54939 77.0944 6.15467C72.1816 7.47103 68.72 12.7649 70.368 18.916C72.1339 25.5059 77.8345 28.0882 83.1067 26.6755C87.5656 25.4807 89.8981 22.1661 90.2136 18.6741C90.2389 18.3953 90.0206 18.1606 89.7416 18.1475L86.5007 18.0035ZM98.2917 0.754153C98.2917 0.47235 98.0643 0.24487 97.7826 0.24487H94.46C94.1781 0.24487 93.9507 0.47235 93.9507 0.754153V3.26321C93.9507 5.04096 92.9992 6.40583 90.8494 6.40583H90.3246C90.0435 6.40583 89.8153 6.6333 89.8153 6.91511V10.1555C89.8153 10.4366 90.0435 10.6648 90.3246 10.6648H93.0279C93.3088 10.6648 93.537 10.8923 93.537 11.1741V20.7955C93.537 24.558 95.8527 26.7908 99.5738 26.7908C100.897 26.7908 101.741 26.5986 102.195 26.4519C102.389 26.3901 102.509 26.204 102.509 26.0003V22.9874C102.509 22.6662 102.215 22.4204 101.895 22.4598C101.582 22.4978 101.202 22.5317 100.856 22.5317C99.0773 22.5317 98.2917 21.7875 98.2917 20.0098V11.1741C98.2917 10.8923 98.5198 10.6648 98.801 10.6648H101.959C102.24 10.6648 102.469 10.4366 102.469 10.1555V6.91511C102.469 6.6333 102.24 6.40583 101.959 6.40583H98.801C98.5198 6.40583 98.2917 6.17767 98.2917 5.89655V0.754153ZM104.303 20.9677C104.062 21.0349 103.903 21.2665 103.952 21.511C104.416 23.8034 106.719 27.1619 112.197 27.1619C117.324 27.1619 119.805 23.7715 119.805 20.7117C119.805 17.7341 117.82 15.4186 114.016 14.5915L110.957 13.9715C109.716 13.7237 108.93 12.938 108.93 11.8631C108.93 10.6225 110.129 9.54755 111.825 9.54755C114.103 9.54755 115.074 10.8846 115.418 11.9969C115.509 12.2923 115.81 12.4899 116.108 12.4057L119.161 11.5331C119.41 11.4618 119.568 11.2153 119.505 10.964C118.991 8.92691 117.05 5.78431 111.825 5.78431C107.648 5.78431 104.423 8.7619 104.423 12.2759C104.423 15.0465 106.284 17.362 109.84 18.1476L112.817 18.8097C114.43 19.1404 115.174 19.9675 115.174 21.0424C115.174 22.283 114.14 23.3579 112.156 23.3579C109.879 23.3579 108.548 22.0861 108.162 20.527C108.086 20.2187 107.78 20.0042 107.474 20.089L104.303 20.9677Z" fill="#00C9B6"/>
<path d="M84.0826 39.4348C84.0826 40.0879 84.6047 40.6102 85.2572 40.6102C85.9105 40.6102 86.447 40.0879 86.447 39.4348C86.447 38.7823 85.9105 38.2458 85.2572 38.2458C84.6047 38.2458 84.0826 38.7823 84.0826 39.4348ZM87.2856 38.6073C87.2856 39.7245 88.1996 40.7396 89.6791 40.7396C90.4192 40.7396 90.9719 40.4979 91.3603 40.1813C91.5275 40.0455 91.8731 40.267 91.9165 40.4782C91.9357 40.5684 91.99 40.5224 92.0816 40.5224H93.0797C93.2943 40.5224 93.4593 40.3253 93.4396 40.1121C93.4221 39.9239 93.4071 39.6795 93.4071 39.3903V35.8803C93.4071 34.4733 92.58 33.2401 90.4043 33.2401C88.8072 33.2401 87.7473 34.1562 87.4824 35.2488C87.4416 35.4165 87.5577 35.5755 87.7255 35.6135L88.5947 35.8103C88.7931 35.8553 88.9831 35.7131 89.0502 35.5212C89.235 34.9956 89.6961 34.6178 90.4187 34.6178C91.3476 34.6178 91.7536 35.0968 91.7536 35.6916C91.7536 35.9381 91.6375 36.141 91.2315 36.1995L89.4176 36.4751C88.2137 36.6489 87.2856 37.3449 87.2856 38.6073ZM89.9983 39.4194C89.3308 39.4194 88.9682 38.9843 88.9682 38.5054C88.9682 37.9255 89.3891 37.6356 89.9115 37.548L91.4378 37.3198C91.6042 37.2948 91.7536 37.4237 91.7536 37.5922C91.7536 38.97 90.9408 39.4194 89.9983 39.4194ZM97.8567 31.4576C97.9158 31.4576 97.9707 31.4595 98.0218 31.4624C98.247 31.4739 98.4659 31.3061 98.4659 31.0801V30.3038C98.4659 30.1755 98.3918 30.0594 98.2667 30.0282C98.0985 29.9862 97.8554 29.9494 97.5809 29.9494C96.1299 29.9494 95.1148 30.9068 95.1148 32.4877V33.12C95.1148 33.308 94.9628 33.4594 94.7753 33.4594H94.221C94.0336 33.4594 93.8816 33.6115 93.8816 33.7989V34.5853C93.8816 34.7728 94.0336 34.9248 94.221 34.9248H94.7753C94.9628 34.9248 95.1148 35.0768 95.1148 35.2642V40.1845C95.1148 40.3719 95.2668 40.5242 95.4542 40.5242H96.472C96.6603 40.5242 96.8117 40.3719 96.8117 40.1845V35.2642C96.8117 35.0768 96.9638 34.9248 97.1512 34.9248H98.1112C98.2995 34.9248 98.451 34.7728 98.451 34.5853V33.7989C98.451 33.6115 98.2995 33.4594 98.1112 33.4594H97.1512C96.9638 33.4594 96.8117 33.308 96.8117 33.12V32.5311C96.8117 31.6613 97.4065 31.4576 97.8567 31.4576ZM103.193 33.6937C103.193 33.5321 103.078 33.3908 102.917 33.3785C102.863 33.3745 102.805 33.3719 102.743 33.3719C102.171 33.3719 101.653 33.5428 101.263 33.8545C101.098 33.9863 100.698 33.8647 100.698 33.6535C100.698 33.5462 100.611 33.4586 100.503 33.4586H99.3985C99.2105 33.4586 99.059 33.6107 99.059 33.7981V40.184C99.059 40.3714 99.2105 40.5234 99.3985 40.5234H100.402C100.59 40.5234 100.742 40.3714 100.742 40.184V37.158C100.742 35.838 101.336 35.0837 102.642 35.0837C102.693 35.0837 102.746 35.0851 102.799 35.0877C103.007 35.0973 103.193 34.9397 103.193 34.7312V33.6937ZM105.212 40.5237C105.399 40.5237 105.551 40.3717 105.551 40.1842V33.7984C105.551 33.6109 105.399 33.4589 105.212 33.4589H104.222C104.035 33.4589 103.883 33.6109 103.883 33.7984V40.1842C103.883 40.3717 104.035 40.5237 104.222 40.5237H105.212ZM103.622 30.9789C103.622 31.5881 104.115 32.0668 104.71 32.0668C105.319 32.0668 105.812 31.5881 105.812 30.9789C105.812 30.3693 105.319 29.8762 104.71 29.8762C104.115 29.8762 103.622 30.3693 103.622 30.9789ZM110.071 34.7925C110.944 34.7925 111.423 35.2523 111.658 35.7586C111.742 35.9413 111.947 36.052 112.135 35.9836L113.002 35.6665C113.167 35.6066 113.26 35.4314 113.199 35.2677C112.815 34.2337 111.793 33.2401 110.057 33.2401C108.026 33.2401 106.445 34.8069 106.445 36.9822C106.445 39.1294 108.026 40.7396 110.1 40.7396C111.788 40.7396 112.816 39.7447 113.24 38.7357C113.31 38.5693 113.216 38.3853 113.047 38.3235L112.209 38.0192C112.025 37.9527 111.824 38.056 111.735 38.2298C111.489 38.7037 110.988 39.2021 110.1 39.2021C109.041 39.2021 108.127 38.4042 108.127 36.9822C108.127 35.5611 109.041 34.7925 110.071 34.7925ZM113.641 38.6073C113.641 39.7245 114.555 40.7396 116.034 40.7396C116.774 40.7396 117.327 40.4979 117.716 40.1813C117.883 40.0455 118.228 40.267 118.272 40.4782C118.29 40.5684 118.344 40.5224 118.437 40.5224H119.435C119.65 40.5224 119.815 40.3253 119.795 40.1121C119.777 39.9239 119.762 39.6795 119.762 39.3903V35.8803C119.762 34.4733 118.935 33.2401 116.76 33.2401C115.162 33.2401 114.102 34.1562 113.838 35.2488C113.797 35.4165 113.912 35.5755 114.081 35.6135L114.949 35.8103C115.148 35.8553 115.338 35.7131 115.406 35.5212C115.589 34.9956 116.051 34.6178 116.774 34.6178C117.702 34.6178 118.108 35.0968 118.108 35.6916C118.108 35.9381 117.993 36.141 117.586 36.1995L115.773 36.4751C114.569 36.6489 113.641 37.3449 113.641 38.6073ZM116.354 39.4194C115.686 39.4194 115.323 38.9843 115.323 38.5054C115.323 37.9255 115.744 37.6356 116.267 37.548L117.793 37.3198C117.959 37.2948 118.108 37.4237 118.108 37.5922C118.108 38.97 117.296 39.4194 116.354 39.4194Z" fill="#532D94"/>
</g>
<defs>
<clipPath id="clip0_14_4778">
<rect width="119.805" height="41" fill="white"/>
</clipPath>
</defs>
</svg>
